<svg viewBox="0 0 200 200" fill="none" xmlns="http://www.w3.org/2000/svg">
<path d="M129.269 97.7402C127.693 99.7184 125.748 101.445 123.435 102.92C121.121 104.396 118.64 105.619 115.991 106.592C113.342 107.564 110.627 108.285 107.844 108.754C105.061 109.257 102.412 109.509 99.8975 109.509C95.0358 109.509 90.5597 108.637 86.4692 106.894C82.3787 105.15 78.8415 102.753 75.8574 99.7017C72.9069 96.617 70.5934 92.9959 68.917 88.8384C67.2406 84.6808 66.4023 80.2048 66.4023 75.4102C66.4023 71.7555 66.8215 68.1847 67.6597 64.6978C68.4979 61.1772 69.6882 57.8747 71.2305 54.79C72.8063 51.6719 74.7174 48.8219 76.9639 46.2402C79.2103 43.625 81.7585 41.3786 84.6084 39.501C87.4583 37.6234 90.5765 36.1649 93.9629 35.1255C97.3493 34.0861 100.97 33.5664 104.826 33.5664C106.268 33.5664 107.81 33.6335 109.453 33.7676C111.096 33.8682 112.722 34.0693 114.332 34.3711C115.974 34.6393 117.567 35.0249 119.109 35.5278C120.652 36.0308 122.06 36.651 123.334 37.3887L121.926 56.6006C120.048 55.8965 118.104 55.4271 116.092 55.1924C114.114 54.9242 112.169 54.79 110.258 54.79C107.576 54.79 105.061 55.2091 102.714 56.0474C100.4 56.8521 98.3719 58.0256 96.6284 59.5679C94.9185 61.1102 93.5605 62.9878 92.5547 65.2007C91.5488 67.4136 91.0459 69.9115 91.0459 72.6943C91.0459 74.4378 91.2806 76.131 91.75 77.7739C92.2194 79.3833 92.9235 80.825 93.8623 82.0991C94.8346 83.3397 96.0249 84.3455 97.4331 85.1167C98.8748 85.8879 100.535 86.2734 102.412 86.2734C103.686 86.2734 104.994 86.1058 106.335 85.7705C107.71 85.4352 108.883 84.8652 109.855 84.0605L110.057 80.1377L97.9863 79.9365L98.5898 64.8486C103.586 64.681 108.581 64.5469 113.577 64.4463C118.573 64.3122 123.602 64.1445 128.665 63.9434L129.269 97.7402Z" fill="white"/>
<circle cx="100" cy="100" r="90" stroke="white" stroke-width="20"/>
<path d="M145 166.5C145 203.227 125.077 187 100.5 187C75.9233 187 56 203.227 56 166.5C56 129.773 75.9233 100 100.5 100C125.077 100 145 129.773 145 166.5Z" fill="white"/>
<circle cx="100" cy="100" r="90" stroke="white" stroke-width="20"/>
</svg>